<?xml version="1.0" encoding="utf-8"?><svg viewBox="0 0 362 362" xmlns="http://www.w3.org/2000/svg" xmlns:xlink="http://www.w3.org/1999/xlink"><style>:root>svg{display:none}:root>svg:target{display:block}</style><svg viewBox="-1 -1 20.8 14.2" id="image-angle-down" xmlns="http://www.w3.org/2000/svg"><path d="M9.4 12.2 0 2.8 2.8 0l6.6 6.6L16 0l2.8 2.8z"/></svg><svg viewBox="-1 -1 20.8 14.2" id="image-angle-up" xmlns="http://www.w3.org/2000/svg"><path d="M16 12.2 9.4 5.7l-6.6 6.5L0 9.4 9.4 0l9.4 9.4z"/></svg><svg viewBox="-1 -1 33 32" id="image-arrow-2" xmlns="http://www.w3.org/2000/svg"><path d="m30.284 0-16.73 4.483L25.8 16.73 30.284 0ZM3.061 29.345l18.738-18.738-2.121-2.122L.939 27.224l2.122 2.12Z"/></svg><svg viewBox="-1 -1 16 16" id="image-arrow-3" xmlns="http://www.w3.org/2000/svg"><path d="M12.8 1.9H.8m11-1.1.2 12.5M11.8 2 1.6 12.2M11 13.3l-.1-9L2.3 13 .9 11.5l8.6-8.6H.8v-2h12v.7l.2 11.7z"/></svg><svg viewBox="-1 -1 20 42" id="image-arrow-down" xmlns="http://www.w3.org/2000/svg"><path d="m9 40 8.66-15H.34L9 40ZM7.5 0v26.5h3V0h-3Z"/></svg><svg viewBox="-1 -1 19.39 17.98" id="image-arrow-more-down" xmlns="http://www.w3.org/2000/svg"><path d="m1.41 5.94 6.44 6.29L7.78 0l2.05.07v12.16L16 6.08l1.39 1.42L8.91 16l-.5-.49L0 7.35Z"/></svg><svg viewBox="-1 -1 18 19.4" id="image-arrow-right" xmlns="http://www.w3.org/2000/svg"><path d="m5.9 16 6.3-6.4H0l.1-2.1h12.2L6.1 1.4 7.5 0 16 8.5l-.5.5-8.1 8.4L5.9 16z"/></svg><svg fill="none" viewBox="-1 -1 20 42" id="image-arrow-top" xmlns="http://www.w3.org/2000/svg"><path d="M9 0 .34 15h17.32L9 0Zm1.5 40V13.5h-3V40h3Z" fill="#5460F2"/></svg><svg viewBox="-1 -1 33 32" id="image-arrow-top-right" xmlns="http://www.w3.org/2000/svg"><path d="m30.284 0-16.73 4.483L25.8 16.73 30.284 0ZM3.061 29.345l18.738-18.738-2.121-2.122L.939 27.224l2.122 2.12Z"/></svg><svg viewBox="-1 -1 26 26" id="image-burger" xmlns="http://www.w3.org/2000/svg"><path fill-rule="evenodd" clip-rule="evenodd" d="M20.5 7h-17a.5.5 0 0 1-.5-.5v-1a.5.5 0 0 1 .5-.5h17a.5.5 0 0 1 .5.5v1a.5.5 0 0 1-.5.5Zm.5 5.5v-1a.5.5 0 0 0-.5-.5h-11a.5.5 0 0 0-.5.5v1a.5.5 0 0 0 .5.5h11a.5.5 0 0 0 .5-.5Zm0 5v1a.5.5 0 0 1-.5.5h-5a.5.5 0 0 1-.5-.5v-1a.5.5 0 0 1 .5-.5h5a.5.5 0 0 1 .5.5Z"/></svg><svg viewBox="-1 -1 15 15" id="image-check" xmlns="http://www.w3.org/2000/svg"><path d="M4.68 10.83 1.75 7.49a.56.56 0 0 1 0-.72.43.43 0 0 1 .65 0l2.28 2.6 6.17-7a.43.43 0 0 1 .65 0 .55.55 0 0 1 0 .72Z"/></svg><svg fill="none" viewBox="-1 -1 17 15" id="image-check2" xmlns="http://www.w3.org/2000/svg"><path fill-rule="evenodd" clip-rule="evenodd" d="M13.035.31 4.684 8.38l-2.207-2.38A1.226 1.226 0 0 0 .954 5.93a1.068 1.068 0 0 0-.315 1.4l2.626 4.29c.263.386.718.63 1.208.63s.928-.244 1.191-.63c.42-.542 8.44-10.12 8.44-10.12 1.05-1.05-.228-2.013-1.051-1.19h-.018Z" fill="#00B38F"/></svg><svg viewBox="-1 -1 31 31" id="image-close" xmlns="http://www.w3.org/2000/svg"><path d="M.608.608a2.071 2.071 0 0 1 2.933 0L14.5 11.572 25.46.608a2.073 2.073 0 1 1 2.932 2.933L17.429 14.5l10.964 10.96a2.073 2.073 0 1 1-2.933 2.932L14.5 17.429 3.54 28.393A2.074 2.074 0 0 1 .609 25.46L11.572 14.5.608 3.54a2.07 2.07 0 0 1 0-2.932Z"/></svg><svg fill="none" viewBox="-1 -1 17 16" id="image-disabled" xmlns="http://www.w3.org/2000/svg"><path d="M14.661 12.182a.584.584 0 0 1 0 .828l-.817.817a.583.583 0 0 1-.828 0L7.834 8.646l-5.182 5.181a.583.583 0 0 1-.828 0l-.817-.817a.583.583 0 0 1 0-.828L6.188 7 1.007 1.818a.584.584 0 0 1 0-.828l.817-.817a.584.584 0 0 1 .828 0l5.182 5.181L13.016.173a.584.584 0 0 1 .828 0l.817.817a.584.584 0 0 1 0 .828L9.48 7l5.181 5.182Z" fill="#636363"/></svg><svg fill="none" viewBox="-1 -1 362 362" id="image-ellipse" xmlns="http://www.w3.org/2000/svg"><circle cx="180" cy="180" r="174" stroke="#5460F2" stroke-width="12" stroke-dasharray="2 2"/></svg><svg viewBox="-1 -1 26 26" id="image-facebook" xmlns="http://www.w3.org/2000/svg"><path d="M16.5 6h-3a1 1 0 0 0-1 1v3h4a.35.35 0 0 1 .34.46l-.74 2.2a.5.5 0 0 1-.47.34H12.5v7.5a.5.5 0 0 1-.5.5H9.5a.5.5 0 0 1-.5-.5V13H7.5a.5.5 0 0 1-.5-.5v-2a.5.5 0 0 1 .5-.5H9V7a4 4 0 0 1 4-4h3.5a.5.5 0 0 1 .5.5v2a.5.5 0 0 1-.5.5Z"/></svg><svg viewBox="-1 -1 26 26" id="image-github" xmlns="http://www.w3.org/2000/svg"><path d="M22 12.008a10 10 0 0 1-6.84 9.48.52.52 0 0 1-.45-.07.51.51 0 0 1-.21-.41v-2.67a4 4 0 0 0-.5-2.06.25.25 0 0 1 0-.27.27.27 0 0 1 .2-.14c2.44-.25 3.8-1.22 3.8-3.86a4.71 4.71 0 0 0-1.19-3.36 4.3 4.3 0 0 0 .19-1.2 4.33 4.33 0 0 0-.15-1.08.49.49 0 0 0-.53-.36 4.45 4.45 0 0 0-2.44 1.18 9.91 9.91 0 0 0-3.76 0 4.45 4.45 0 0 0-2.44-1.18.49.49 0 0 0-.53.36A4.33 4.33 0 0 0 7 7.448a4.3 4.3 0 0 0 .19 1.2A4.71 4.71 0 0 0 6 12.008c0 2.78 1.51 3.71 4.28 3.94a3.71 3.71 0 0 0-.69 1.53v.12a.68.68 0 0 0 0 .14.59.59 0 0 1-.64.51 1 1 0 0 1-.43-.12 5.339 5.339 0 0 1-1.42-1.26 10.092 10.092 0 0 0-.8-.81 2.743 2.743 0 0 0-.59-.39.49.49 0 0 0-.48 0 .5.5 0 0 0-.23.42v.06a.5.5 0 0 0 .23.42c.358.3.669.655.92 1.05a6.61 6.61 0 0 0 1.59 1.72 2.48 2.48 0 0 0 1.4.42h.36v1.25a.51.51 0 0 1-.21.41.52.52 0 0 1-.45.07A10 10 0 1 1 22 12.008Z"/></svg><svg viewBox="-1 -1 26 26" id="image-glassdoor" xmlns="http://www.w3.org/2000/svg"><path fill-rule="evenodd" clip-rule="evenodd" d="M16.285 19.156H4.91A2.834 2.834 0 0 0 7.754 22h8.5a2.854 2.854 0 0 0 2.844-2.844V7.406c0-.062-.032-.093-.094-.093h-2.625c-.063 0-.094.03-.094.093v11.75Zm0-17.156c1.563 0 2.844 1.281 2.844 2.875H7.754v11.75c0 .063-.063.094-.094.094H5.004c-.063 0-.094-.063-.094-.094V4.875C4.91 3.281 6.191 2 7.754 2h8.531Z"/></svg><svg viewBox="-1 -1 26 26" id="image-instagram" xmlns="http://www.w3.org/2000/svg"><path fill-rule="evenodd" clip-rule="evenodd" d="M16 3H8a5 5 0 0 0-5 5v8a5 5 0 0 0 5 5h8a5 5 0 0 0 5-5V8a5 5 0 0 0-5-5Zm3.25 13A3.26 3.26 0 0 1 16 19.25H8A3.26 3.26 0 0 1 4.75 16V8A3.26 3.26 0 0 1 8 4.75h8A3.26 3.26 0 0 1 19.25 8v8Zm-2.5-7.75a1 1 0 1 0 0-2 1 1 0 0 0 0 2ZM12 7.5a4.5 4.5 0 1 0 4.5 4.5A4.49 4.49 0 0 0 12 7.5ZM9.25 12a2.75 2.75 0 1 0 5.5 0 2.75 2.75 0 0 0-5.5 0Z"/></svg><svg viewBox="-1 -1 26 26" id="image-invision" xmlns="http://www.w3.org/2000/svg"><path d="M19.362 20.993H4.638c-.9-.001-1.63-.73-1.63-1.631V4.638c0-.9.73-1.629 1.63-1.63H19.36c.9.001 1.63.73 1.632 1.63v14.724c-.001.9-.73 1.63-1.631 1.63ZM6.672 9.67l-.387 1.43h1.278l-.826 3.366c-.06.266-.094.538-.1.81a1.444 1.444 0 0 0 1.62 1.585c.93-.04 1.766-.58 2.184-1.412l-.327 1.3h1.81l1.034-4.141c.26-1.06.772-1.6 1.519-1.6a.907.907 0 0 1 .97.984c.004.197-.025.393-.084.58l-.528 1.907a2.912 2.912 0 0 0-.114.812 1.48 1.48 0 0 0 1.65 1.566c1.03 0 1.749-.7 2.138-2.081l-.707-.273c-.276.789-.57 1.173-.9 1.173-.241 0-.368-.167-.368-.484.007-.166.032-.331.075-.492l.52-1.858c.118-.382.178-.78.18-1.18a1.9 1.9 0 0 0-1.855-2.111 3.13 3.13 0 0 0-2.406 1.762l.36-1.617H10.62l-.391 1.4h1.294l-.8 3.188a2.09 2.09 0 0 1-1.826 1.383.506.506 0 0 1-.092-.007c-.243-.057-.384-.15-.384-.452.005-.25.042-.498.11-.738l1.216-4.8H6.673Zm2.346-3.162a1.09 1.09 0 0 0 0 2.18v-.025c.291.002.572-.11.78-.314.206-.202.32-.478.318-.766a1.089 1.089 0 0 0-1.098-1.075Z"/></svg><svg viewBox="-1 -1 26 26" id="image-linkedin" xmlns="http://www.w3.org/2000/svg"><path fill-rule="evenodd" clip-rule="evenodd" d="M3.5 5a2 2 0 1 1 4 0 2 2 0 0 1-4 0ZM21 13.41a4.61 4.61 0 0 0-3.55-4.56 4.46 4.46 0 0 0-3.95 1.07V9.5A.5.5 0 0 0 13 9h-2.5a.5.5 0 0 0-.5.5v10a.5.5 0 0 0 .5.5H13a.5.5 0 0 0 .5-.5v-5.64a2.07 2.07 0 0 1 1.66-2.08 2 2 0 0 1 2.34 2v5.72a.5.5 0 0 0 .5.5h2.5a.5.5 0 0 0 .5-.5v-6.09ZM7.5 9.5v10a.5.5 0 0 1-.5.5H4.5a.5.5 0 0 1-.5-.5v-10a.5.5 0 0 1 .5-.5H7a.5.5 0 0 1 .5.5Z"/></svg><svg fill="none" viewBox="-1 -1 62 59" id="image-magnifier" xmlns="http://www.w3.org/2000/svg"><circle opacity=".4" cx="23" cy="27" r="23" fill="#5460F2"/><circle cx="27" cy="23" r="22" stroke="#fff" stroke-width="2"/><path stroke="#fff" stroke-width="2" d="m41.768 38.353 16.971 16.971"/></svg><svg fill="none" viewBox="-1 -1 66 50" id="image-quotes" xmlns="http://www.w3.org/2000/svg"><path d="M44.29 22.473h7.855c2.91.582 5.31 1.963 7.2 4.145 1.891 2.037 2.837 4.728 2.837 8.073 0 3.927-1.31 7.127-3.927 9.6C55.636 46.764 52.364 48 48.436 48c-4.654 0-8.29-1.673-10.909-5.018-2.472-3.346-3.709-7.71-3.709-13.091 0-8.145 2.546-14.91 7.637-20.291 5.09-5.527 12.29-8.727 21.6-9.6v5.018c-5.673.873-10.11 2.837-13.31 5.891-3.2 3.055-5.018 6.91-5.454 11.564Zm-33.817 0h7.854c2.91.582 5.31 1.963 7.2 4.145 1.891 2.037 2.837 4.728 2.837 8.073 0 3.927-1.31 7.127-3.928 9.6S18.546 48 14.618 48c-4.654 0-8.29-1.673-10.909-5.018C1.236 39.636 0 35.272 0 29.89 0 21.746 2.545 14.98 7.636 9.6 12.727 4.073 19.927.873 29.236 0v5.018c-5.672.873-10.109 2.837-13.309 5.891-3.2 3.055-5.018 6.91-5.454 11.564Z" fill="#4C4C4C"/></svg><svg viewBox="-1 -1 26 26" id="image-search" xmlns="http://www.w3.org/2000/svg"><path fill-rule="evenodd" clip-rule="evenodd" d="m16.875 15.455 4 4.005a.501.501 0 0 1-.02.691l-.7.7a.5.5 0 0 1-.71 0l-4-4.004a2.612 2.612 0 0 1-.3-.36l-.75-1.001a6.995 6.995 0 0 1-4.37 1.531A7.011 7.011 0 0 1 6.973 3.69a6.995 6.995 0 0 1 8.518 1.971 7.015 7.015 0 0 1-.046 8.753l1 .691c.156.1.3.218.43.35ZM5.025 10.01a5.003 5.003 0 0 0 5 5.006 4.997 4.997 0 0 0 3.535-1.466 5.01 5.01 0 0 0 1.465-3.54 5.003 5.003 0 0 0-5-5.006c-2.761 0-5 2.241-5 5.006Z"/></svg><svg viewBox="-1 -1 22 14" id="image-search-arrow" xmlns="http://www.w3.org/2000/svg"><path d="M20 6 10 .226v11.547L20 6ZM0 7h11V5H0v2Z"/></svg><svg viewBox="-1 -1 42 20" id="image-slide-next" xmlns="http://www.w3.org/2000/svg"><path d="M40 9 25 .34v17.32L40 9ZM0 10.5h26.5v-3H0v3Z"/></svg><svg viewBox="-1 -1 58 18" id="image-slide-next2" xmlns="http://www.w3.org/2000/svg"><path d="M55.707 8.707a1 1 0 0 0 0-1.414L49.343.929a1 1 0 1 0-1.414 1.414L53.586 8l-5.657 5.657a1 1 0 0 0 1.414 1.414l6.364-6.364ZM0 9h55V7H0v2Z"/></svg><svg viewBox="-1 -1 42 20" id="image-slide-prev" xmlns="http://www.w3.org/2000/svg"><path d="m0 9 15 8.66V.34L0 9Zm40-1.5H13.5v3H40v-3Z"/></svg><svg viewBox="-1 -1 58 18" id="image-slide-prev2" xmlns="http://www.w3.org/2000/svg"><path d="M.293 7.293a1 1 0 0 0 0 1.414l6.364 6.364a1 1 0 0 0 1.414-1.414L2.414 8l5.657-5.657A1 1 0 0 0 6.657.93L.293 7.293ZM56 7H1v2h55V7Z"/></svg><svg viewBox="-1 -1 26 26" id="image-twitter" xmlns="http://www.w3.org/2000/svg"><path d="M21.97 6.464a7.99 7.99 0 0 1-1.847 1.778v.55a12.19 12.19 0 0 1-3.621 8.69A12.178 12.178 0 0 1 7.772 21a12.217 12.217 0 0 1-5.443-1.259.25.25 0 0 1-.15-.23v-.11a.26.26 0 0 1 .26-.26 8.844 8.844 0 0 0 5.112-1.837 4.363 4.363 0 0 1-3.884-2.558.26.26 0 0 1 .26-.36c.51.052 1.025.004 1.518-.14A4.355 4.355 0 0 1 2 10.44a.26.26 0 0 1 .36-.26c.497.22 1.033.335 1.577.34a4.277 4.277 0 0 1-1.708-4.935.54.54 0 0 1 .91-.18 12.339 12.339 0 0 0 8.397 3.876 3.995 3.995 0 0 1-.12-1 4.352 4.352 0 0 1 7.499-2.937 8.675 8.675 0 0 0 2.386-.828.17.17 0 0 1 .18 0 .17.17 0 0 1 0 .18 4.365 4.365 0 0 1-1.758 1.998 8.564 8.564 0 0 0 1.997-.48.16.16 0 0 1 .18 0 .17.17 0 0 1 .07.25Z"/></svg><svg fill="none" viewBox="-1 -1 162 194" id="image-upload-cv" xmlns="http://www.w3.org/2000/svg"><path d="m6.875 15.313 2.75-2.876 1.445 1.383 1.36-1.421 1.36-1.36-1.415-1.414 2.75-2.75 1.414 1.414 2.75-2.75-1.414-1.414 2.75-2.75 1.414 1.414.79-.789h1.2V0h4.06v2h4.058V0h4.059v2h4.059V0h4.059v2h4.058V0h4.06v2H56.5V0h4.059v2h4.059V0h4.059v2h4.058V0h4.06v2h4.058V0h4.059v2h4.059V0h4.058v2h4.06V0h4.058v2h4.059V0h4.059v2h4.059V0h4.058v2h4.059V0h4.059v2h4.059V0h4.059v2h4.058V0h4.059v2h4.059V0h4.059v2h4.059V0h4.059v2H160v4h-2v4h2v4h-2v4h2v4h-2v4h2v4h-2v4h2v4h-2v4h2v4h-2v4h2v4h-2v4h2v4h-2v4h2v4h-2v4h2v4h-2v4h2v4h-2v4h2v4h-2v4h2v4h-2v4h2v4h-2v4h2v4h-2v4h2v4h-2v4h2v4h-2v4h2v4h-2v4h2v4h-2v4h2v4h-2v4h2v4h-2v4h2v4h-2v4h2v4h-2v4h2v4h-2v2h-4v-2h-4v2h-4v-2h-4v2h-4v-2h-4v2h-4v-2h-4v2h-4v-2h-4v2h-4v-2h-4v2h-4v-2h-4v2h-4v-2h-4v2h-4v-2h-4v2h-4v-2h-4v2h-4v-2h-4v2h-4v-2h-4v2h-4v-2h-4v2h-4v-2h-4v2h-4v-2h-4v2h-4v-2h-4v2h-4v-2h-4v2h-4v-2h-4v2h-4v-2H6v2H2v-2.018H0v-4.036h2v-4.035H0v-4.036h2v-4.036H0v-4.035h2v-4.036H0v-4.036h2v-4.036H0v-4.035h2v-4.036H0v-4.036h2v-4.035H0v-4.036h2v-4.036H0v-4.036h2v-4.035H0v-4.036h2v-4.036H0v-4.035h2v-4.036H0v-4.036h2v-4.036H0v-4.035h2v-4.036H0v-4.036h2v-4.035H0v-4.036h2v-4.036H0v-4.036h2v-4.035H0v-4.036h2v-4.036H0v-4.035h2v-4.036H0v-4.036h2v-4.036H0v-4.035h2v-4.036H0v-4.036h2v-4.035H0v-4.036h2v-1.216l.82-.857-1.445-1.383 2.75-2.875L5.57 19.57l2.75-2.875-1.445-1.383Z" stroke="#5460F2" stroke-width="4" stroke-dasharray="4 4"/><g clip-path="url(#bea)" fill="#5460F2"><path d="M95.993 62.644c-2.219-8.837-11.181-14.203-20.019-11.985a16.498 16.498 0 0 0-12.438 14.805 8.999 8.999 0 0 0 1.5 17.878h7.5v-3h-7.5a6 6 0 1 1 0-11.999 1.5 1.5 0 0 0 1.5-1.5c-.008-7.455 6.03-13.504 13.485-13.512A13.499 13.499 0 0 1 93.278 64.22a1.5 1.5 0 0 0 1.275 1.2 7.5 7.5 0 0 1-1.02 14.923h-6v3h6c5.798-.018 10.485-4.733 10.467-10.53a10.499 10.499 0 0 0-8.007-10.168Z"/><path d="m78.97 68.778-6 6 2.115 2.115 3.45-3.435V87.84h2.999V73.458l3.434 3.435 2.115-2.115-6-6a1.5 1.5 0 0 0-2.114 0Z"/></g><path d="M32.662 135.168c-.7 0-1.335-.135-1.904-.406a3.21 3.21 0 0 1-1.344-1.274c-.327-.569-.49-1.293-.49-2.17V125.2h1.484v6.132c0 .859.205 1.489.616 1.89.41.401.966.602 1.666.602.69 0 1.241-.201 1.652-.602.41-.401.616-1.031.616-1.89V125.2h1.484v6.118c0 .877-.173 1.601-.518 2.17a3.17 3.17 0 0 1-1.372 1.274 4.34 4.34 0 0 1-1.89.406Zm5.628 2.912v-10.024h1.33l.154 1.078c.224-.327.532-.616.924-.868s.896-.378 1.512-.378c.672 0 1.264.159 1.778.476.513.317.914.751 1.204 1.302.298.551.448 1.176.448 1.876s-.15 1.325-.448 1.876c-.29.541-.691.971-1.204 1.288-.514.308-1.111.462-1.792.462-.542 0-1.022-.107-1.442-.322a2.488 2.488 0 0 1-.98-.91v4.144H38.29Zm3.654-4.2c.634 0 1.157-.215 1.568-.644.41-.439.616-1.008.616-1.708 0-.457-.094-.863-.28-1.218a2.056 2.056 0 0 0-.77-.826 2.089 2.089 0 0 0-1.134-.308c-.635 0-1.158.219-1.568.658-.402.439-.602 1.003-.602 1.694 0 .7.2 1.269.602 1.708.41.429.933.644 1.568.644Zm5.3 1.12v-10.08h1.485V135h-1.484Zm6.612.168c-.663 0-1.26-.149-1.792-.448a3.405 3.405 0 0 1-1.246-1.274c-.308-.551-.462-1.19-.462-1.918s.154-1.363.462-1.904a3.341 3.341 0 0 1 1.274-1.274 3.484 3.484 0 0 1 1.778-.462c.663 0 1.255.154 1.778.462.532.299.952.723 1.26 1.274.317.541.476 1.176.476 1.904s-.159 1.367-.476 1.918a3.373 3.373 0 0 1-1.26 1.274 3.593 3.593 0 0 1-1.792.448Zm0-1.274a1.944 1.944 0 0 0 1.722-1.05c.187-.355.28-.793.28-1.316s-.093-.957-.28-1.302a1.835 1.835 0 0 0-.728-.798 1.888 1.888 0 0 0-.98-.266c-.355 0-.686.089-.994.266a1.955 1.955 0 0 0-.728.798c-.187.345-.28.779-.28 1.302s.093.961.28 1.316c.187.345.43.607.728.784.299.177.625.266.98.266Zm7.485 1.274c-.588 0-1.074-.098-1.456-.294-.383-.196-.668-.453-.854-.77a2.108 2.108 0 0 1-.28-1.064c0-.672.261-1.204.784-1.596.522-.392 1.27-.588 2.24-.588h1.82v-.126c0-.541-.15-.947-.448-1.218-.29-.271-.668-.406-1.134-.406a1.9 1.9 0 0 0-1.078.308c-.299.196-.48.49-.546.882h-1.484c.046-.504.214-.933.504-1.288a2.836 2.836 0 0 1 1.12-.826 3.763 3.763 0 0 1 1.498-.294c.97 0 1.722.257 2.254.77.532.504.798 1.195.798 2.072V135H63.79l-.126-1.19c-.196.383-.48.705-.854.966s-.864.392-1.47.392Zm.294-1.204c.401 0 .737-.093 1.008-.28.28-.196.494-.453.644-.77a2.97 2.97 0 0 0 .294-1.05h-1.652c-.588 0-1.008.103-1.26.308a.967.967 0 0 0-.364.77c0 .317.116.569.35.756.242.177.57.266.98.266Zm8.338 1.204c-.672 0-1.265-.159-1.778-.476a3.303 3.303 0 0 1-1.204-1.302c-.29-.551-.434-1.176-.434-1.876s.145-1.321.434-1.862c.29-.551.69-.98 1.204-1.288.523-.317 1.12-.476 1.792-.476.55 0 1.031.107 1.442.322.42.215.747.518.98.91v-4.2h1.484V135h-1.33l-.154-1.078a3.183 3.183 0 0 1-.924.868c-.392.252-.896.378-1.512.378Zm.266-1.288c.635 0 1.153-.219 1.554-.658.41-.439.616-1.003.616-1.694 0-.7-.205-1.265-.616-1.694-.401-.439-.92-.658-1.554-.658-.635 0-1.157.219-1.568.658-.41.429-.616.994-.616 1.694 0 .457.093.863.28 1.218.187.355.443.635.77.84.336.196.714.294 1.134.294Zm9.864 4.2 1.666-3.654h-.406l-2.743-6.37h1.61l2.127 5.138 2.227-5.138h1.567l-4.48 10.024h-1.568Zm9.888-2.912c-.663 0-1.26-.149-1.792-.448a3.405 3.405 0 0 1-1.246-1.274c-.308-.551-.462-1.19-.462-1.918s.154-1.363.462-1.904a3.34 3.34 0 0 1 1.274-1.274 3.484 3.484 0 0 1 1.778-.462c.662 0 1.255.154 1.778.462.532.299.952.723 1.26 1.274.317.541.476 1.176.476 1.904s-.159 1.367-.476 1.918a3.373 3.373 0 0 1-1.26 1.274 3.593 3.593 0 0 1-1.792.448Zm0-1.274a1.945 1.945 0 0 0 1.722-1.05c.186-.355.28-.793.28-1.316s-.094-.957-.28-1.302a1.835 1.835 0 0 0-.728-.798 1.888 1.888 0 0 0-.98-.266c-.355 0-.686.089-.994.266a1.954 1.954 0 0 0-.728.798c-.187.345-.28.779-.28 1.302s.093.961.28 1.316c.186.345.429.607.728.784.298.177.625.266.98.266Zm7.695 1.274c-.84 0-1.503-.261-1.989-.784-.475-.523-.713-1.302-.713-2.338v-3.99h1.484v3.836c0 1.344.55 2.016 1.651 2.016.551 0 1.004-.196 1.359-.588.354-.392.532-.952.532-1.68v-3.584h1.484V135h-1.316l-.112-1.218c-.215.429-.532.77-.953 1.022-.41.243-.886.364-1.427.364Zm5.695-.168v-6.944h1.33l.126 1.316a2.742 2.742 0 0 1 1.008-1.078c.439-.271.966-.406 1.582-.406v1.554h-.406c-.41 0-.779.07-1.106.21a1.604 1.604 0 0 0-.77.686c-.186.317-.28.761-.28 1.33V135h-1.484Zm13.27.168c-.971 0-1.811-.21-2.52-.63a4.337 4.337 0 0 1-1.624-1.778c-.383-.765-.574-1.647-.574-2.646 0-1.008.191-1.89.574-2.646a4.32 4.32 0 0 1 1.624-1.792c.709-.429 1.549-.644 2.52-.644 1.148 0 2.086.28 2.814.84.728.56 1.19 1.344 1.386 2.352h-1.652c-.131-.569-.411-1.022-.84-1.358-.429-.336-1.003-.504-1.722-.504-.98 0-1.755.336-2.324 1.008-.569.663-.854 1.577-.854 2.744 0 1.157.285 2.067.854 2.73.569.663 1.344.994 2.324.994.719 0 1.293-.159 1.722-.476.429-.317.709-.751.84-1.302h1.652c-.196.971-.658 1.731-1.386 2.282-.728.551-1.666.826-2.814.826Zm8.729-.168-3.626-9.8h1.582l2.94 8.26 2.954-8.26h1.568l-3.626 9.8h-1.792Z" fill="#5460F2"/><defs><clipPath id="bea"><path fill="#fff" transform="translate(56 45)" d="M0 0h48v48H0z"/></clipPath></defs></svg><svg viewBox="-1 -1 26 26" id="image-youtube" xmlns="http://www.w3.org/2000/svg"><path d="M12.007 19.012h-.02c-.063 0-6.266-.012-7.83-.437a2.5 2.5 0 0 1-1.765-1.765A26.493 26.493 0 0 1 1.986 12a26.646 26.646 0 0 1 .417-4.817A2.564 2.564 0 0 1 4.17 5.4C5.691 5 11.723 5 11.98 5h.022c.063 0 6.281.012 7.83.437.86.233 1.53.904 1.762 1.763.29 1.594.427 3.211.407 4.831a26.567 26.567 0 0 1-.418 4.811 2.51 2.51 0 0 1-1.767 1.763c-1.52.403-7.553.407-7.809.407Zm-2-10.007-.005 6 5.211-3-5.206-3Z"/></svg><svg fill="none" viewBox="-1 -1 211 146" id="image-youtube-play" xmlns="http://www.w3.org/2000/svg"><path d="m108.698 143.811-42.709-.781c-13.828-.272-27.69.271-41.248-2.548-20.623-4.214-22.084-24.871-23.613-42.2-2.106-24.36-1.291-49.163 2.684-73.32C6.057 11.405 14.888 3.317 28.547 2.437 74.653-.757 121.066-.378 167.07 1.112c4.859.137 9.751.884 14.542 1.733 23.648 4.146 24.225 27.556 25.758 47.262 1.529 19.91.883 39.923-2.039 59.697-2.344 16.373-6.829 30.103-25.758 31.428-23.717 1.734-46.889 3.129-70.672 2.685.001-.106-.135-.106-.203-.106ZM83.589 102.36c17.873-10.261 35.404-20.352 53.174-30.545-17.906-10.261-35.404-20.352-53.174-30.545v61.09Z" fill="#fff"/><path d="M83.59 102.36c17.872-10.261 35.403-20.352 53.173-30.545-17.906-10.261-35.404-20.352-53.174-30.545v61.09Z" fill="#fff"/><path d="m108.698 143.811-42.709-.781c-13.828-.272-27.69.271-41.248-2.548-20.623-4.214-22.084-24.871-23.613-42.2-2.106-24.36-1.291-49.163 2.684-73.32C6.057 11.405 14.888 3.317 28.547 2.437 74.653-.757 121.066-.378 167.07 1.112c4.859.137 9.751.884 14.542 1.733 23.648 4.146 24.225 27.556 25.758 47.262 1.529 19.91.883 39.923-2.039 59.697-2.344 16.373-6.829 30.103-25.758 31.428-23.717 1.734-46.889 3.129-70.672 2.685.001-.106-.135-.106-.203-.106ZM83.589 102.36c17.873-10.261 35.404-20.352 53.174-30.545-17.906-10.261-35.404-20.352-53.174-30.545v61.09Z" fill="red"/></svg></svg>